<svg width="72" height="22" viewBox="0 0 72 22" fill="none" xmlns="http://www.w3.org/2000/svg">
<path d="M4.70401 21C4.46401 21 4.22401 20.856 4.15201 20.544L0.552007 4.8C0.480007 4.464 0.600007 4.2 1.00801 4.2H3.76801C3.98401 4.2 4.22401 4.296 4.27201 4.56L6.64801 15.72C6.69601 15.936 6.98401 15.936 7.03201 15.72L9.45601 4.56C9.50401 4.296 9.74401 4.2 9.98401 4.2H13.584C13.824 4.2 14.04 4.272 14.088 4.56L16.512 15.72C16.56 15.912 16.872 15.912 16.896 15.72L19.296 4.56C19.344 4.296 19.56 4.2 19.8 4.2H22.56C22.968 4.2 23.088 4.488 23.016 4.8L19.416 20.544C19.344 20.832 19.104 21 18.84 21H14.856C14.592 21 14.352 20.832 14.28 20.544L11.952 9.984C11.904 9.792 11.616 9.768 11.568 9.984L9.26401 20.544C9.21601 20.832 8.95201 21 8.71201 21H4.70401Z" fill="black"/>
<path d="M30 11C30 9.3 30.7 7.8 31.8 6.8M42 11C42 12.7 41.3 14.2 40.2 15.2M46 11C46 16.5228 41.5228 21 36 21C30.4772 21 26 16.5228 26 11C26 5.47715 30.4772 1 36 1C41.5228 1 46 5.47715 46 11ZM38 11C38 12.1046 37.1046 13 36 13C34.8954 13 34 12.1046 34 11C34 9.89543 34.8954 9 36 9C37.1046 9 38 9.89543 38 11Z" stroke="black" stroke-width="2" stroke-linecap="round" stroke-linejoin="round"/>
<path d="M52.704 21C52.464 21 52.224 20.856 52.152 20.544L48.552 4.8C48.48 4.464 48.6 4.2 49.008 4.2H51.768C51.984 4.2 52.224 4.296 52.272 4.56L54.648 15.72C54.696 15.936 54.984 15.936 55.032 15.72L57.456 4.56C57.504 4.296 57.744 4.2 57.984 4.2H61.584C61.824 4.2 62.04 4.272 62.088 4.56L64.512 15.72C64.56 15.912 64.872 15.912 64.896 15.72L67.296 4.56C67.344 4.296 67.56 4.2 67.8 4.2H70.56C70.968 4.2 71.088 4.488 71.016 4.8L67.416 20.544C67.344 20.832 67.104 21 66.84 21H62.856C62.592 21 62.352 20.832 62.28 20.544L59.952 9.984C59.904 9.792 59.616 9.768 59.568 9.984L57.264 20.544C57.216 20.832 56.952 21 56.712 21H52.704Z" fill="black"/>
</svg>
